<svg width="160" height="160" viewBox="0 0 160 160" fill="none" xmlns="http://www.w3.org/2000/svg">
<!-- <rect width="160" height="160" fill="#1E1E1E"/> -->
<rect width="160" height="160" rx="48" fill="#D9D9D9"/>
<path fill-rule="evenodd" clip-rule="evenodd" d="M115.185 20.3872C106.572 19.2293 95.2556 19.2188 79.5 19.2188C63.7443 19.2188 52.4273 19.2293 43.815 20.3872C35.3455 21.5259 30.2395 23.6916 26.4656 27.4656C22.6916 31.2395 20.5259 36.3455 19.3872 44.815C18.2293 53.4273 18.2188 64.7443 18.2188 80.5C18.2188 96.2556 18.2293 107.572 19.3872 116.185C20.5259 124.654 22.6916 129.76 26.4656 133.534C30.2395 137.309 35.3455 139.474 43.815 140.613C52.4273 141.771 63.7443 141.781 79.5 141.781C95.2556 141.781 106.572 141.771 115.185 140.613C123.654 139.474 128.76 137.309 132.534 133.534C136.309 129.76 138.474 124.654 139.613 116.185C140.771 107.572 140.781 96.2556 140.781 80.5C140.781 64.7443 140.771 53.4273 139.613 44.815C138.474 36.3455 136.309 31.2395 132.534 27.4656C128.76 23.6916 123.654 21.5259 115.185 20.3872ZM116.509 10.5383C126.08 11.8252 133.634 14.5106 139.562 20.4387C145.49 26.3668 148.175 33.9194 149.462 43.4908C150.719 52.8419 150.719 64.8268 150.719 80.1197V80.8803C150.719 96.1734 150.719 108.158 149.462 117.509C148.175 127.08 145.49 134.634 139.562 140.562C133.634 146.49 126.08 149.175 116.509 150.462C107.158 151.719 95.1734 151.719 79.8803 151.719H79.1197C63.8268 151.719 51.8419 151.719 42.4908 150.462C32.9194 149.175 25.3668 146.49 19.4387 140.562C13.5106 134.634 10.8252 127.08 9.53834 117.509C8.28112 108.158 8.28118 96.1734 8.28125 80.8803V80.1197C8.28118 64.8268 8.28112 52.8419 9.53834 43.4908C10.8252 33.9194 13.5106 26.3668 19.4387 20.4387C25.3668 14.5106 32.9194 11.8252 42.4908 10.5383C51.8419 9.28112 63.8268 9.28118 79.1197 9.28125H79.8803C95.1734 9.28118 107.158 9.28112 116.509 10.5383Z" fill="#1C274C"/>
<path fill-rule="evenodd" clip-rule="evenodd" d="M102.924 43.1657C111.807 39.7617 120.236 48.191 116.833 57.0746L93.5649 117.798C91.7331 122.579 87.3831 125.115 83.1332 125.214C78.8296 125.314 74.2643 122.868 72.7034 117.73L65.7038 94.6954C65.6687 94.5801 65.6149 94.4993 65.5568 94.4416C65.4988 94.3833 65.418 94.3297 65.3026 94.2946L42.2677 87.2952C37.131 85.7344 34.6844 81.1684 34.7842 76.8655C34.8828 72.6149 37.419 68.2656 42.2004 66.4333L102.924 43.1657ZM107.131 52.3591C107.022 52.3355 106.814 52.317 106.48 52.4452L45.7561 75.7128C45.0358 75.989 44.7317 76.5508 44.719 77.0961C44.7127 77.3677 44.7868 77.5307 44.8295 77.5943C44.8289 77.5936 44.83 77.5949 44.8295 77.5943C44.8482 77.6227 44.906 77.7109 45.1569 77.787L68.1918 84.7864C71.5699 85.8126 74.1854 88.4288 75.2123 91.8062L82.2116 114.841C82.2878 115.092 82.3726 115.148 82.4011 115.167C82.4654 115.21 82.6303 115.286 82.9026 115.279C83.4479 115.267 84.0097 114.963 84.2853 114.242L107.553 53.5189C107.681 53.1844 107.663 52.9758 107.639 52.8676C107.612 52.7421 107.55 52.6298 107.46 52.5392C107.369 52.4485 107.256 52.3865 107.131 52.3591Z" fill="#1C274C"/>
</svg>
