<svg width="566" height="159" viewBox="0 0 566 159" fill="none" xmlns="http://www.w3.org/2000/svg">
<!-- <rect width="566" height="159" fill="#1E1E1E"/> -->
<g filter="url(#filter0_d_0_1)">
<path d="M224.888 136.536C217.805 136.536 211.277 135.427 205.304 133.208C199.416 130.904 194.253 127.661 189.816 123.48C185.464 119.299 182.051 114.392 179.576 108.76C177.187 103.128 175.992 96.9413 175.992 90.2C175.992 83.4587 177.187 77.272 179.576 71.64C182.051 66.008 185.507 61.1013 189.944 56.92C194.381 52.7387 199.587 49.5387 205.56 47.32C211.533 45.016 218.104 43.864 225.272 43.864C233.208 43.864 240.333 45.1867 246.648 47.832C253.048 50.4773 258.424 54.3173 262.776 59.352L249.464 71.64C246.221 68.2267 242.68 65.7093 238.84 64.088C235 62.3813 230.819 61.528 226.296 61.528C221.944 61.528 217.976 62.2107 214.392 63.576C210.808 64.9413 207.693 66.904 205.048 69.464C202.488 72.024 200.483 75.0533 199.032 78.552C197.667 82.0507 196.984 85.9333 196.984 90.2C196.984 94.3813 197.667 98.2213 199.032 101.72C200.483 105.219 202.488 108.291 205.048 110.936C207.693 113.496 210.765 115.459 214.264 116.824C217.848 118.189 221.773 118.872 226.04 118.872C230.136 118.872 234.104 118.232 237.944 116.952C241.869 115.587 245.667 113.325 249.336 110.168L261.112 125.144C256.248 128.813 250.573 131.629 244.088 133.592C237.688 135.555 231.288 136.536 224.888 136.536ZM242.168 122.456V88.792H261.112V125.144L242.168 122.456ZM308.022 136.024C302.305 136.024 297.185 134.915 292.662 132.696C288.225 130.477 284.769 127.107 282.294 122.584C279.819 117.976 278.582 112.131 278.582 105.048V66.136H298.55V102.104C298.55 107.821 299.745 112.045 302.134 114.776C304.609 117.421 308.065 118.744 312.502 118.744C315.574 118.744 318.305 118.104 320.694 116.824C323.083 115.459 324.961 113.411 326.326 110.68C327.691 107.864 328.374 104.365 328.374 100.184V66.136H348.342V135H329.398V116.056L332.854 121.56C330.55 126.339 327.137 129.965 322.614 132.44C318.177 134.829 313.313 136.024 308.022 136.024ZM366.841 135V66.136H386.809V135H366.841ZM376.825 56.536C373.156 56.536 370.169 55.4693 367.865 53.336C365.561 51.2027 364.409 48.5573 364.409 45.4C364.409 42.2427 365.561 39.5973 367.865 37.464C370.169 35.3307 373.156 34.264 376.825 34.264C380.494 34.264 383.481 35.288 385.785 37.336C388.089 39.2987 389.241 41.8587 389.241 45.016C389.241 48.344 388.089 51.1173 385.785 53.336C383.566 55.4693 380.58 56.536 376.825 56.536ZM434.909 136.024C428.424 136.024 422.578 134.573 417.373 131.672C412.168 128.685 408.029 124.547 404.957 119.256C401.97 113.965 400.477 107.736 400.477 100.568C400.477 93.3147 401.97 87.0427 404.957 81.752C408.029 76.4613 412.168 72.3653 417.373 69.464C422.578 66.5627 428.424 65.112 434.909 65.112C440.712 65.112 445.789 66.392 450.141 68.952C454.493 71.512 457.864 75.3947 460.253 80.6C462.642 85.8053 463.837 92.4613 463.837 100.568C463.837 108.589 462.685 115.245 460.381 120.536C458.077 125.741 454.749 129.624 450.397 132.184C446.13 134.744 440.968 136.024 434.909 136.024ZM438.365 119.64C441.608 119.64 444.552 118.872 447.197 117.336C449.842 115.8 451.933 113.624 453.469 110.808C455.09 107.907 455.901 104.493 455.901 100.568C455.901 96.5573 455.09 93.144 453.469 90.328C451.933 87.512 449.842 85.336 447.197 83.8C444.552 82.264 441.608 81.496 438.365 81.496C435.037 81.496 432.05 82.264 429.405 83.8C426.76 85.336 424.626 87.512 423.005 90.328C421.469 93.144 420.701 96.5573 420.701 100.568C420.701 104.493 421.469 107.907 423.005 110.808C424.626 113.624 426.76 115.8 429.405 117.336C432.05 118.872 435.037 119.64 438.365 119.64ZM456.413 135V120.92L456.797 100.44L455.517 80.088V40.024H475.485V135H456.413ZM528.142 136.024C520.291 136.024 513.379 134.488 507.406 131.416C501.518 128.344 496.953 124.163 493.71 118.872C490.467 113.496 488.846 107.395 488.846 100.568C488.846 93.656 490.425 87.5547 493.582 82.264C496.825 76.888 501.219 72.7067 506.766 69.72C512.313 66.648 518.585 65.112 525.582 65.112C532.323 65.112 538.382 66.5627 543.758 69.464C549.219 72.28 553.529 76.376 556.686 81.752C559.843 87.0427 561.422 93.4 561.422 100.824C561.422 101.592 561.379 102.488 561.294 103.512C561.209 104.451 561.123 105.347 561.038 106.2H505.102V94.552H550.542L542.862 98.008C542.862 94.424 542.137 91.3093 540.686 88.664C539.235 86.0187 537.23 83.9707 534.67 82.52C532.11 80.984 529.123 80.216 525.71 80.216C522.297 80.216 519.267 80.984 516.622 82.52C514.062 83.9707 512.057 86.0613 510.606 88.792C509.155 91.4373 508.43 94.5947 508.43 98.264V101.336C508.43 105.091 509.241 108.419 510.862 111.32C512.569 114.136 514.915 116.312 517.902 117.848C520.974 119.299 524.558 120.024 528.654 120.024C532.323 120.024 535.523 119.469 538.254 118.36C541.07 117.251 543.63 115.587 545.934 113.368L556.558 124.888C553.401 128.472 549.433 131.245 544.654 133.208C539.875 135.085 534.371 136.024 528.142 136.024Z" fill="#1C274C"/>
</g>
<g filter="url(#filter1_d_0_1)">
<path fill-rule="evenodd" clip-rule="evenodd" d="M115.185 19.3872C106.572 18.2293 95.2556 18.2188 79.5 18.2188C63.7443 18.2188 52.4273 18.2293 43.815 19.3872C35.3455 20.5259 30.2395 22.6916 26.4656 26.4656C22.6916 30.2395 20.5259 35.3455 19.3872 43.815C18.2293 52.4273 18.2188 63.7443 18.2188 79.5C18.2188 95.2556 18.2293 106.572 19.3872 115.185C20.5259 123.654 22.6916 128.76 26.4656 132.534C30.2395 136.309 35.3455 138.474 43.815 139.613C52.4273 140.771 63.7443 140.781 79.5 140.781C95.2556 140.781 106.572 140.771 115.185 139.613C123.654 138.474 128.76 136.309 132.534 132.534C136.309 128.76 138.474 123.654 139.613 115.185C140.771 106.572 140.781 95.2556 140.781 79.5C140.781 63.7443 140.771 52.4273 139.613 43.815C138.474 35.3455 136.309 30.2395 132.534 26.4656C128.76 22.6916 123.654 20.5259 115.185 19.3872ZM116.509 9.53834C126.08 10.8252 133.634 13.5106 139.562 19.4387C145.49 25.3668 148.175 32.9194 149.462 42.4908C150.719 51.8419 150.719 63.8268 150.719 79.1197V79.8803C150.719 95.1734 150.719 107.158 149.462 116.509C148.175 126.08 145.49 133.634 139.562 139.562C133.634 145.49 126.08 148.175 116.509 149.462C107.158 150.719 95.1734 150.719 79.8803 150.719H79.1197C63.8268 150.719 51.8419 150.719 42.4908 149.462C32.9194 148.175 25.3668 145.49 19.4387 139.562C13.5106 133.634 10.8252 126.08 9.53834 116.509C8.28112 107.158 8.28118 95.1734 8.28125 79.8803V79.1197C8.28118 63.8268 8.28112 51.8419 9.53834 42.4908C10.8252 32.9194 13.5106 25.3668 19.4387 19.4387C25.3668 13.5106 32.9194 10.8252 42.4908 9.53834C51.8419 8.28112 63.8268 8.28118 79.1197 8.28125H79.8803C95.1734 8.28118 107.158 8.28112 116.509 9.53834Z" fill="#1C274C"/>
<path fill-rule="evenodd" clip-rule="evenodd" d="M102.924 42.1657C111.807 38.7617 120.236 47.191 116.833 56.0746L93.5649 116.798C91.7331 121.579 87.3831 124.115 83.1332 124.214C78.8296 124.314 74.2643 121.868 72.7034 116.73L65.7038 93.6954C65.6687 93.5801 65.6149 93.4993 65.5568 93.4416C65.4988 93.3833 65.418 93.3297 65.3026 93.2946L42.2677 86.2952C37.131 84.7344 34.6844 80.1684 34.7842 75.8655C34.8828 71.6149 37.419 67.2656 42.2004 65.4333L102.924 42.1657ZM107.131 51.3591C107.022 51.3355 106.814 51.317 106.48 51.4452L45.7561 74.7128C45.0358 74.989 44.7317 75.5508 44.719 76.0961C44.7127 76.3677 44.7868 76.5307 44.8295 76.5943C44.8289 76.5936 44.83 76.5949 44.8295 76.5943C44.8482 76.6227 44.906 76.7109 45.1569 76.787L68.1918 83.7864C71.5699 84.8126 74.1854 87.4288 75.2123 90.8062L82.2116 113.841C82.2878 114.092 82.3726 114.148 82.4011 114.167C82.4654 114.21 82.6303 114.286 82.9026 114.279C83.4479 114.267 84.0097 113.963 84.2853 113.242L107.553 52.5189C107.681 52.1844 107.663 51.9758 107.639 51.8676C107.612 51.7421 107.55 51.6298 107.46 51.5392C107.369 51.4485 107.256 51.3865 107.131 51.3591Z" fill="#1C274C"/>
</g>
<defs>
<filter id="filter0_d_0_1" x="171.992" y="34.264" width="393.43" height="110.272" filterUnits="userSpaceOnUse" color-interpolation-filters="sRGB">
<feFlood flood-opacity="0" result="BackgroundImageFix"/>
<feColorMatrix in="SourceAlpha" type="matrix" values="0 0 0 0 0 0 0 0 0 0 0 0 0 0 0 0 0 0 127 0" result="hardAlpha"/>
<feOffset dy="4"/>
<feGaussianBlur stdDeviation="2"/>
<feComposite in2="hardAlpha" operator="out"/>
<feColorMatrix type="matrix" values="0 0 0 0 0 0 0 0 0 0 0 0 0 0 0 0 0 0 0.25 0"/>
<feBlend mode="normal" in2="BackgroundImageFix" result="effect1_dropShadow_0_1"/>
<feBlend mode="normal" in="SourceGraphic" in2="effect1_dropShadow_0_1" result="shape"/>
</filter>
<filter id="filter1_d_0_1" x="-4" y="0" width="167" height="167" filterUnits="userSpaceOnUse" color-interpolation-filters="sRGB">
<feFlood flood-opacity="0" result="BackgroundImageFix"/>
<feColorMatrix in="SourceAlpha" type="matrix" values="0 0 0 0 0 0 0 0 0 0 0 0 0 0 0 0 0 0 127 0" result="hardAlpha"/>
<feOffset dy="4"/>
<feGaussianBlur stdDeviation="2"/>
<feComposite in2="hardAlpha" operator="out"/>
<feColorMatrix type="matrix" values="0 0 0 0 0 0 0 0 0 0 0 0 0 0 0 0 0 0 0.25 0"/>
<feBlend mode="normal" in2="BackgroundImageFix" result="effect1_dropShadow_0_1"/>
<feBlend mode="normal" in="SourceGraphic" in2="effect1_dropShadow_0_1" result="shape"/>
</filter>
</defs>
</svg>
